<svg width="33" height="25" viewBox="0 0 33 25" fill="none" xmlns="http://www.w3.org/2000/svg">
<path d="M2.22302 24.0797C2.26387 23.9823 2.27264 23.9472 2.29153 23.9186C3.18202 22.5899 3.18202 22.5899 4.79179 22.5899C12.6021 22.5899 20.4125 22.5952 28.2224 22.578C28.7308 22.5767 29.0848 22.6843 29.3372 23.1396C29.5116 23.4536 29.7491 23.7324 29.9955 24.0797L2.22302 24.0797Z" fill="#8ED13F"/>
<path d="M3.927 21.6845C4.2796 21.2028 4.57336 20.7733 4.9031 20.3729C4.98083 20.2789 5.17976 20.2482 5.32288 20.2482C12.5009 20.2425 19.6785 20.2408 26.8565 20.2552C27.0414 20.2557 27.2737 20.3949 27.4019 20.5411C27.6974 20.8783 27.9424 21.2594 28.2529 21.6845L3.927 21.6845Z" fill="#8ED13F"/>
<path d="M14.2357 17.826C14.356 17.952 14.5061 18.0605 14.5913 18.2071C15.0353 18.9721 15.6737 19.2175 16.5559 19.1535C17.1056 19.1139 17.5237 19.0195 17.8429 18.5549C18.0194 18.2971 18.2565 18.0807 18.4664 17.8458C20.6426 17.8449 22.8192 17.8524 24.9955 17.8339C25.3375 17.8309 25.5439 17.9327 25.7209 18.2177C25.9391 18.569 26.2048 18.8909 26.4994 19.2935H5.685C6.01827 18.8351 6.31291 18.3872 6.6585 17.9827C6.75466 17.87 7.00144 17.8493 7.17971 17.8485C9.53155 17.8344 11.8834 17.8313 14.2357 17.826Z" fill="#8ED13F"/>
<path d="M12.2931 15.514C12.7076 16.0019 13.1216 16.4892 13.5362 16.9767C11.5246 16.9767 9.51311 16.9767 7.37598 16.9767C7.7479 16.4708 8.04825 16.0322 8.38724 15.6246C8.46231 15.535 8.67266 15.5338 8.82152 15.5324C9.97855 15.5205 11.136 15.5189 12.2931 15.514L12.2931 15.514Z" fill="#8ED13F"/>
<path d="M20.3702 15.5488C20.6236 15.5386 20.8769 15.5286 21.1303 15.518C21.8495 15.522 22.5697 15.5449 23.2881 15.5207C23.6248 15.5089 23.8404 15.6028 24.0187 15.8922C24.2343 16.2426 24.4978 16.5635 24.7898 16.9649C22.8569 16.9649 21.0232 16.9649 19.189 16.9649C19.5829 16.4929 19.9763 16.0208 20.3702 15.5488Z" fill="#8ED13F"/>
<path d="M16.2281 12.9203C19.3224 10.9644 22.4175 9.00991 25.5106 7.05218C27.7015 5.66522 29.8887 4.27357 32.0784 2.88565C32.2152 2.79882 32.3599 2.72484 32.5011 2.64492L32.5897 2.75584C31.058 4.34699 29.5259 5.93757 27.9942 7.52823C26.1691 9.40561 24.3407 11.2801 22.5202 13.1622C21.6713 14.04 20.8372 14.9329 19.9966 15.8187C19.5708 16.2621 19.1454 16.7056 18.7195 17.149C18.4586 17.4248 18.1976 17.7011 17.9371 17.9768C17.7114 18.1965 17.4597 18.396 17.2656 18.6408C16.9148 19.0819 16.4912 19.147 15.94 19.1481C15.0555 19.1505 14.4358 18.8611 14.0463 18.0671C13.9715 17.9148 13.8293 17.7961 13.718 17.662C13.5052 17.3637 13.2923 17.0653 13.0799 16.767C12.7004 16.2518 12.3213 15.7367 11.9418 15.2211C10.4167 13.1112 8.893 10.9998 7.36513 8.89139C5.3443 6.10243 3.31977 3.31629 1.29707 0.528939C1.32822 0.505174 1.35891 0.481748 1.3896 0.458381C2.89149 1.72327 4.39341 2.98814 5.89578 4.25263C5.9889 4.33094 6.08255 4.40831 6.17612 4.48616C8.18786 6.2027 10.1967 7.92341 12.2127 9.63489C13.3728 10.6197 14.5454 11.5895 15.7123 12.566L15.823 12.6627L16.1112 12.9047L16.1158 12.908L16.2281 12.9203Z" fill="#94969A"/>
<path d="M16.408 12.9205C19.3583 10.7536 22.3095 8.5879 25.2585 6.41914C27.3474 4.88276 29.4322 3.34193 31.5197 1.80464C31.6501 1.70845 31.7893 1.62459 31.9246 1.53499L32.0207 1.63948C30.6038 3.33357 29.1863 5.02718 27.7693 6.72078C26.0797 8.7209 24.3865 10.7184 22.7017 12.7229C21.9161 13.6577 21.1463 14.6067 20.3696 15.549C19.9757 16.021 19.5823 16.4931 19.1884 16.9651C18.9473 17.2584 18.7063 17.5522 18.4656 17.8455C18.2557 18.0804 18.0186 18.2969 17.8421 18.5547C17.5229 19.0193 17.1049 19.1137 16.5551 19.1532C15.6729 19.2173 15.0345 18.9718 14.5905 18.2069C14.5053 18.0602 14.3552 17.9517 14.2349 17.8257C14.0017 17.543 13.7685 17.2602 13.5358 16.9774C13.1213 16.49 12.7072 16.0026 12.2927 15.5147C10.6241 13.5164 8.95682 11.5163 7.28562 9.51966C5.07517 6.87842 2.86121 4.2403 0.648987 1.60084C0.678407 1.57496 0.707397 1.54945 0.736377 1.524C2.32285 2.68104 3.90934 3.83809 5.49625 4.9947C5.59461 5.06629 5.69342 5.13697 5.79221 5.20808C7.9188 6.7801 10.0427 8.35652 12.1733 9.92317C13.3992 10.8247 14.6366 11.7103 15.8687 12.603L15.986 12.6918L16.2903 12.913L16.2951 12.9161L16.408 12.9205Z" fill="#369BFF"/>
</svg>
